<?xml version="1.0" encoding="UTF-8"?>
<svg version="1.1" xmlns="http://www.w3.org/2000/svg" width="512" height="512">
<path d="M0 0 C1.10980042 -0.00538554 2.21960083 -0.01077108 3.36303157 -0.01631981 C7.0715364 -0.03059562 10.77968411 -0.02349631 14.48820496 -0.01637268 C17.15131759 -0.02207649 19.81440483 -0.02894048 22.47750854 -0.03717041 C28.95453976 -0.05433948 35.43147387 -0.05520225 41.90852193 -0.04995751 C47.17569542 -0.04591048 52.4428403 -0.04736568 57.71001244 -0.05270576 C58.83597001 -0.0538284 58.83597001 -0.0538284 59.98467421 -0.05497371 C61.5097829 -0.05650525 63.03489159 -0.0580436 64.56000026 -0.05958868 C78.85287093 -0.07330726 93.14568681 -0.0678809 107.43855622 -0.05640347 C120.4995209 -0.04647517 133.56034384 -0.05940587 146.62128667 -0.08333766 C160.04728512 -0.10775206 173.47321762 -0.11733057 186.89923781 -0.11068493 C194.43087141 -0.10719746 201.96239607 -0.10939329 209.49401283 -0.12693596 C215.90660028 -0.14168741 222.3190021 -0.14225531 228.73158602 -0.12486505 C231.99989391 -0.116376 235.26780392 -0.11633772 238.53610611 -0.1295166 C242.08793889 -0.14274251 245.63887894 -0.13116324 249.19067383 -0.11352539 C250.21151355 -0.1231304 251.23235327 -0.1327354 252.28412753 -0.14263147 C263.35679275 -0.02995567 271.68843267 3.33875136 279.62565613 11.0243988 C287.61103417 19.7606623 290.23941519 28.88019247 290.20573425 40.51365662 C290.2142038 41.60079956 290.22267334 42.6879425 290.23139954 43.80802917 C290.25469485 47.38157516 290.25579388 50.95468908 290.25456238 54.52830505 C290.26166529 57.01835807 290.26936448 59.50840945 290.27763367 61.99845886 C290.29105901 67.20669616 290.2926545 72.41478188 290.28678894 77.62303162 C290.2820534 82.9735372 290.29505349 88.32341574 290.32780457 93.67381287 C290.36686092 100.14107714 290.38161263 106.60791678 290.37701416 113.07529449 C290.37870978 115.53932775 290.38839447 118.00336876 290.40615845 120.46733856 C290.4282283 123.90515146 290.41870793 127.34147497 290.40104675 130.77928162 C290.41431 131.79961487 290.42757324 132.81994812 290.4412384 133.87120056 C290.3589514 140.74501137 290.3589514 140.74501137 287.43876648 144.01945496 C284.19676961 145.69147087 282.3840691 146.00014928 278.78581238 145.38768005 C276.48305682 143.52058095 275.10757367 142.03120264 273.78581238 139.38768005 C273.69068839 137.97393059 273.65680381 136.55581444 273.6545105 135.13887024 C273.64849823 133.80161644 273.64849823 133.80161644 273.6423645 132.43734741 C273.64289322 131.4565773 273.64342194 130.47580719 273.64396667 129.46531677 C273.63875504 127.91870613 273.63875504 127.91870613 273.63343811 126.34085083 C273.626072 124.09549883 273.62073119 121.85013951 273.61714745 119.60477829 C273.60999345 116.04863809 273.5943336 112.4926368 273.57580566 108.9365387 C273.52329442 98.82326697 273.47537744 88.71006946 273.45988464 78.59666443 C273.44979295 72.41504703 273.42043385 66.23377611 273.37856483 60.05229568 C273.36626301 57.69767505 273.36113207 55.34300544 273.36336327 52.98835373 C273.36572084 49.68733139 273.34351225 46.38729892 273.31584167 43.08641052 C273.32244308 42.1177858 273.32904449 41.14916107 273.33584595 40.15118408 C273.24426677 33.47851674 272.06105771 27.83714453 267.33866405 22.863554 C259.66305883 16.1863064 251.96186892 16.2388047 242.23164368 16.26742554 C241.16887707 16.26657111 240.10611046 16.26571669 239.0111388 16.26483637 C235.45049851 16.26318944 231.88990535 16.26869012 228.32926941 16.27415466 C225.77669272 16.27443673 223.22411595 16.27427842 220.67153931 16.27371216 C215.17624945 16.27348445 209.68097476 16.27632066 204.18568802 16.28195 C196.24046905 16.29008373 188.29525583 16.29268214 180.35003315 16.29393799 C167.4588313 16.29612556 154.56763579 16.30277767 141.67643738 16.3122406 C129.15527885 16.32142233 116.63412204 16.32849945 104.11296082 16.33274841 C103.3409053 16.33301114 102.56884979 16.33327386 101.77339865 16.33354454 C97.90014802 16.3348496 94.02689737 16.3361133 90.15364671 16.33735645 C58.03103066 16.34771989 25.9084224 16.3653302 -6.21418762 16.38768005 C-6.20530518 17.2800235 -6.19642273 18.17236694 -6.18727112 19.0917511 C-6.10684473 27.53564959 -6.04608134 35.97941788 -6.00693893 44.42361259 C-5.98613827 48.76401599 -5.95795982 53.10410066 -5.91242981 57.44432068 C-5.86870141 61.63945232 -5.84499407 65.83427901 -5.83467865 70.02962112 C-5.82733537 71.62348856 -5.81299656 73.21734089 -5.7912674 74.81107712 C-5.65104271 85.53038303 -6.00748726 94.82678741 -13.40168762 103.26268005 C-19.773844 109.68323255 -27.56220225 110.81283544 -36.23399734 110.85165215 C-38.58316866 110.8405502 -40.93161455 110.80977817 -43.28059387 110.77830505 C-44.92682199 110.77083268 -46.57305908 110.76514446 -48.21929932 110.76115417 C-52.52504087 110.74597605 -56.83023159 110.70676329 -61.13575745 110.66233826 C-65.54008028 110.62121536 -69.94449324 110.60310704 -74.34895325 110.58299255 C-82.97094913 110.54026008 -91.5924996 110.47210552 -100.21418762 110.38768005 C-100.28284938 156.98810338 -100.3357142 203.58852135 -100.36738361 250.18898528 C-100.37113574 255.69019417 -100.37501871 261.19140296 -100.37898254 266.69261169 C-100.38016294 268.33540394 -100.38016294 268.33540394 -100.38136718 270.0113839 C-100.39442224 287.74623463 -100.41807665 305.4810562 -100.44564601 323.21588963 C-100.47369739 341.41252095 -100.49036332 359.60913699 -100.49645311 377.80578905 C-100.50057009 389.03471485 -100.51357487 400.26355822 -100.53793702 411.49245865 C-100.5537909 419.19180861 -100.55858876 426.89111593 -100.55469175 434.59048104 C-100.55276968 439.03306211 -100.55572295 443.4754991 -100.57180405 447.91805458 C-100.58642753 451.98768201 -100.58712413 456.05706876 -100.57688431 460.12670738 C-100.57561915 461.59658 -100.57940397 463.06646777 -100.58883717 464.53631067 C-100.64381793 473.63446817 -100.27420515 481.28765084 -95.52668762 489.20018005 C-89.19278 495.19171429 -81.82857401 496.51032763 -73.31328011 496.51631451 C-72.14978007 496.51953895 -70.98628004 496.5227634 -69.78752244 496.52608556 C-68.51866161 496.52453695 -67.24980078 496.52298835 -65.94248962 496.52139282 C-64.57357848 496.52326192 -63.20466786 496.52556301 -61.83575809 496.52825814 C-58.07943047 496.5343703 -54.32312513 496.53424324 -50.56679368 496.53306377 C-46.51353503 496.53285962 -42.46028352 496.53837988 -38.4070282 496.54312134 C-30.46823105 496.55142504 -22.52944133 496.55417605 -14.5906402 496.55473372 C-8.13776108 496.55520897 -1.68488442 496.55726419 4.76799393 496.56043434 C23.0640804 496.56923984 41.36016102 496.57385383 59.65624963 496.57310387 C60.64243795 496.57306391 61.62862628 496.57302396 62.6446991 496.57298279 C63.63209171 496.57294191 64.61948432 496.57290103 65.63679792 496.57285891 C81.64214156 496.57245238 97.64746168 496.58202396 113.65279852 496.59612115 C130.08792913 496.61048268 146.52304827 496.61739147 162.95818532 496.61652738 C172.18490602 496.61619535 181.41160206 496.61894502 190.63831711 496.62970543 C198.4933061 496.63880744 206.34825925 496.64098811 214.20325123 496.63419601 C218.21028636 496.63092941 222.21725271 496.63087919 226.22428131 496.63954926 C229.89450811 496.64740887 233.56461151 496.64598835 237.23483528 496.63726512 C239.18711399 496.63500284 241.13939651 496.64256298 243.09166038 496.65050477 C252.09406421 496.61508108 259.47381302 496.20404318 266.78581238 490.38768005 C272.76885618 483.90604926 273.11211693 478.01931452 273.264328 469.6259613 C273.42886371 465.09119675 273.88617648 462.09237457 276.78581238 458.38768005 C279.87754989 456.8418113 282.3801079 457.09408484 285.78581238 457.38768005 C287.98112488 458.7431488 287.98112488 458.7431488 289.78581238 461.38768005 C290.39101636 464.93616422 290.34304758 468.42117109 290.28581238 472.01268005 C290.30128113 472.96014099 290.31674988 473.90760193 290.33268738 474.8837738 C290.27217652 485.94213363 286.09687473 494.83494573 278.66081238 502.95018005 C272.03834415 509.40100764 264.00205873 512.5044807 254.87667847 512.52469444 C253.6604096 512.52976899 252.44414074 512.53484353 251.19101524 512.54007185 C249.83939493 512.5406735 248.48777456 512.54117259 247.13615417 512.5415802 C245.70169773 512.54559581 244.26724242 512.5500342 242.83278847 512.55485976 C238.88584477 512.5668203 234.9389133 512.57247251 230.99195504 512.57704091 C226.73680587 512.58299904 222.4816713 512.59460843 218.22653198 512.60533142 C207.94700409 512.62985163 197.66747137 512.64448256 187.38792324 512.65739149 C184.48401546 512.66110387 181.58010817 512.66507707 178.67620087 512.66914415 C160.6398669 512.69438247 142.60353217 512.71643366 124.56718445 512.7288723 C120.38957212 512.73180196 116.21195981 512.73476362 112.03434753 512.73777771 C110.99603271 512.73852376 109.95771789 512.73926981 108.88793898 512.74003847 C92.07357972 512.75268797 75.2593263 512.78590572 58.4450165 512.82757954 C41.17824174 512.87002357 23.91152112 512.89357024 6.64469433 512.89879286 C-3.04837967 512.9022043 -12.74128831 512.91392795 -22.43431091 512.9468956 C-30.69075274 512.97493126 -38.94699529 512.98588004 -47.20348102 512.97470014 C-51.41365872 512.96952236 -55.62341935 512.97234251 -59.83353615 512.99716568 C-63.69422054 513.01973779 -67.5541902 513.01885745 -71.41488779 512.99996181 C-72.80529196 512.99717285 -74.19574543 513.00269853 -75.58607066 513.01777475 C-87.73766672 513.14139639 -98.19220682 510.48588574 -107.17121887 501.8993988 C-114.12075778 493.35531942 -117.33081352 483.85842218 -117.3484087 472.92289639 C-117.35286654 471.63359421 -117.35732439 470.34429204 -117.36191732 469.0159201 C-117.36182803 467.59226826 -117.36163821 466.16861642 -117.36135864 464.7449646 C-117.36465997 463.22699899 -117.36838611 461.70903425 -117.37250012 460.19107062 C-117.38249748 456.02254262 -117.38623326 451.85402901 -117.38888943 447.68549073 C-117.39279917 443.18836682 -117.40237698 438.69125423 -117.41110229 434.19413757 C-117.43084692 423.33552747 -117.44092998 412.47691646 -117.44983009 401.6182929 C-117.45421592 396.5020136 -117.45958193 391.38573534 -117.46481895 386.26945686 C-117.48182858 369.25749775 -117.49632247 352.24553927 -117.5035677 335.23357296 C-117.50547752 330.82083065 -117.50739786 326.40808835 -117.50935364 321.99534607 C-117.50983738 320.89861226 -117.51032112 319.80187846 -117.51081952 318.67191029 C-117.51911885 300.90779387 -117.54445534 283.14374481 -117.57693432 265.3796578 C-117.61002293 247.13309349 -117.62801805 228.8865634 -117.63121194 210.63996893 C-117.63337526 200.39862836 -117.64209814 190.15738605 -117.66767311 179.91607475 C-117.68940463 171.19383906 -117.69741842 162.47172551 -117.68770633 153.74946582 C-117.68316887 149.30225793 -117.68501557 144.85530191 -117.70446777 140.40812874 C-117.72215184 136.32982934 -117.7210596 132.25196458 -117.70557048 128.17366023 C-117.70320234 126.70524121 -117.70747641 125.23679167 -117.71939913 123.76841914 C-117.88329784 102.23387176 -109.2890753 90.56222534 -94.82773685 75.86171436 C-91.27899105 72.27449812 -87.71913526 68.69847411 -84.15559387 65.1259613 C-83.3930171 64.36055716 -82.63044033 63.59515301 -81.84475517 62.80655479 C-77.8158865 58.76278865 -73.7842235 54.72183431 -69.75007629 50.68333435 C-65.60674984 46.53451007 -61.47279761 42.37647465 -57.34094334 38.21622944 C-54.13822414 34.99481763 -50.92874949 31.78020027 -47.71743584 28.56735802 C-46.19086272 27.03777727 -44.66676786 25.50571863 -43.14531136 23.97104836 C-19.25442531 -0.11261935 -19.25442531 -0.11261935 0 0 Z M-24.49545288 29.55541992 C-25.30864235 30.37646461 -25.30864235 30.37646461 -26.13825989 31.21409607 C-27.06041039 32.1412014 -27.06041039 32.1412014 -28.00119019 33.08703613 C-28.6708934 33.76503769 -29.34059662 34.44303925 -30.03059387 35.1415863 C-31.06542152 36.18209389 -31.06542152 36.18209389 -32.12115479 37.24362183 C-35.08243961 40.22126723 -38.03795505 43.20461414 -40.99372864 46.18772888 C-43.14971899 48.36197609 -45.30883304 50.53308773 -47.46809387 52.7040863 C-48.12362747 53.36791824 -48.77916107 54.03175018 -49.45455933 54.71569824 C-53.31917486 58.60035939 -57.30244678 62.27616247 -61.4508667 65.855896 C-64.85742925 68.8151521 -68.023422 72.01258617 -71.21418762 75.20018005 C-72.23319153 76.20081482 -72.23319153 76.20081482 -73.27278137 77.22166443 C-73.91344543 77.8603949 -74.5541095 78.49912537 -75.21418762 79.1572113 C-75.79168762 79.73060242 -76.36918762 80.30399353 -76.96418762 80.89476013 C-78.42817794 82.31873494 -78.42817794 82.31873494 -78.21418762 84.38768005 C-79.69918762 84.88268005 -79.69918762 84.88268005 -81.21418762 85.38768005 C-81.21418762 86.04768005 -81.21418762 86.70768005 -81.21418762 87.38768005 C-81.87418762 87.38768005 -82.53418762 87.38768005 -83.21418762 87.38768005 C-84.58901469 89.0202872 -85.92066429 90.68993068 -87.21418762 92.38768005 C-88.20418762 93.37768005 -88.20418762 93.37768005 -89.21418762 94.38768005 C-81.49497812 94.5037572 -73.77585962 94.59248777 -66.05597496 94.64674091 C-62.47086538 94.67278616 -58.88635482 94.70808836 -55.30158997 94.76487732 C-51.83912433 94.8193828 -48.37723318 94.84913873 -44.91437149 94.86206627 C-42.95669334 94.8757408 -40.99924494 94.91474529 -39.04191589 94.9541626 C-31.75785771 95.13238247 -31.75785771 95.13238247 -25.41975403 92.04466248 C-22.24669224 88.22216619 -22.09022724 85.53341797 -22.10066223 80.72288513 C-22.10073776 79.56190811 -22.10081329 78.40093109 -22.10089111 77.20477295 C-22.1060524 75.95157761 -22.11121368 74.69838226 -22.11653137 73.4072113 C-22.11794632 72.12408554 -22.11936127 70.84095978 -22.12081909 69.51895142 C-22.12463357 66.11097765 -22.13445471 62.70304663 -22.14552307 59.29508972 C-22.15576019 55.81619342 -22.16032164 52.3372902 -22.1653595 48.85838318 C-22.17607795 42.03479793 -22.19314154 35.21124105 -22.21418762 28.38768005 C-23.37993365 28.27541256 -23.37993365 28.27541256 -24.49545288 29.55541992 Z " fill="#000000" transform="translate(119.21418762207031,-0.3876800537109375)"/>
<path d="M0 0 C3.94664384 2.82527271 6.8194973 5.80252332 9.8046875 9.640625 C13.05277811 11.73584811 15.532254 11.83677641 19.34765625 11.6953125 C20.95930664 11.65857422 20.95930664 11.65857422 22.60351562 11.62109375 C24.84337658 11.5513805 27.08299714 11.47340011 29.32226562 11.38671875 C39.43893526 11.18161036 46.59646495 13.644464 54.015625 20.60546875 C59.49393457 26.83734492 61.35125809 33.66065567 62.15234375 41.78125 C63.32592889 46.92534774 65.59139815 49.86329224 70.01171875 52.6953125 C71.2090733 53.31085392 72.41109477 53.91738634 73.6171875 54.515625 C82.41463347 59.27078644 87.04876156 63.6118732 90.2421875 73.203125 C92.95897216 83.39106749 91.64017009 91.60442743 86.6171875 100.828125 C86.27300781 101.39917969 85.92882812 101.97023438 85.57421875 102.55859375 C83.95468515 106.94037754 84.4461413 110.6998524 86.08203125 114.9921875 C86.90380859 116.61253906 86.90380859 116.61253906 87.7421875 118.265625 C92.32141402 127.38077567 92.80665436 135.04804934 89.8984375 144.86328125 C86.37594796 153.80788863 80.01206486 158.25252225 71.8046875 162.640625 C67.59828353 165.06942729 65.04806444 167.24184668 62.8046875 171.640625 C62.20449694 174.41659266 62.20449694 174.41659266 61.9296875 177.328125 C60.54928032 186.38983021 57.28103572 193.35503872 50.06640625 199.16796875 C45.95783336 201.84315352 40.81114468 204.640625 35.8046875 204.640625 C35.81468025 205.97367172 35.81468025 205.97367172 35.82487488 207.33364868 C35.88505405 215.71995282 35.93069652 224.10618415 35.96012402 232.4926548 C35.97576174 236.80395363 35.99696526 241.11507362 36.03100586 245.42626953 C36.06366709 249.58894985 36.08155476 253.75145845 36.08931923 257.91425705 C36.09485062 259.50024492 36.10565216 261.08622369 36.12187767 262.67213821 C36.14374241 264.89832927 36.14665073 267.12381603 36.14526367 269.35009766 C36.15525642 271.24872055 36.15525642 271.24872055 36.16545105 273.18569946 C35.70288448 277.61556235 34.3194238 280.97993755 31.3046875 284.28515625 C27.40640182 287.32054015 24.53949326 288.78759613 19.6171875 288.953125 C18.90175781 288.99050781 18.18632812 289.02789062 17.44921875 289.06640625 C8.74154019 287.66443142 0.52247196 280.79878855 -6.76953125 276.15429688 C-7.66800781 275.58904297 -8.56648438 275.02378906 -9.4921875 274.44140625 C-10.30010742 273.92747314 -11.10802734 273.41354004 -11.94042969 272.8840332 C-14.15772176 271.66135363 -15.67349183 270.8480288 -18.1953125 270.640625 C-20.53112737 271.61590076 -20.53112737 271.61590076 -22.86328125 273.2109375 C-24.20422852 274.06171875 -24.20422852 274.06171875 -25.57226562 274.9296875 C-26.49974609 275.53554688 -27.42722656 276.14140625 -28.3828125 276.765625 C-39.33588355 283.79300345 -39.33588355 283.79300345 -44.0546875 286.53125 C-44.73370117 286.92602539 -45.41271484 287.32080078 -46.11230469 287.72753906 C-50.09940131 289.47528184 -53.97503095 289.4819673 -58.1953125 288.640625 C-62.5346455 286.9048918 -65.35645948 285.04023482 -67.77973938 280.99703979 C-69.40398568 277.14584748 -69.55752962 274.42779073 -69.53588867 270.25830078 C-69.53654579 269.18897057 -69.53654579 269.18897057 -69.53721619 268.09803772 C-69.53513943 265.76038458 -69.5118623 263.4234641 -69.48828125 261.0859375 C-69.48268131 259.45783886 -69.47841309 257.82973515 -69.47541809 256.20162964 C-69.46400062 251.93047972 -69.43456044 247.65963912 -69.40130615 243.38861084 C-69.37053821 239.02474145 -69.35689842 234.66082175 -69.34179688 230.296875 C-69.30968747 221.74465022 -69.25852901 213.19267616 -69.1953125 204.640625 C-69.81694778 204.51088791 -70.43858307 204.38115082 -71.07905579 204.2474823 C-72.29929695 203.98612236 -72.29929695 203.98612236 -73.54418945 203.71948242 C-74.35144974 203.54849533 -75.15871002 203.37750824 -75.99043274 203.20133972 C-82.6908092 201.49739205 -88.41190691 195.21492163 -92.1953125 189.640625 C-94.49097507 185.27236019 -95.36484375 180.85973557 -96.1328125 176.015625 C-96.97772318 171.26709601 -97.72764486 168.19085615 -101.1953125 164.640625 C-104.15455299 163.04685647 -107.17193866 161.62615962 -110.21484375 160.19921875 C-117.77343842 156.24655915 -122.25352855 149.83087583 -124.77734375 141.78515625 C-126.70722666 131.88323364 -124.90896957 123.50438806 -120.19140625 114.78515625 C-117.94368358 110.38042617 -118.12504012 107.51669902 -119.3828125 102.91796875 C-120.4497155 99.92756275 -121.77410656 97.15272344 -123.29296875 94.3671875 C-126.67786654 87.89045666 -126.10333079 78.87691511 -124.2578125 71.953125 C-120.32980652 62.08785652 -112.33122429 56.59200761 -103.015625 52.30859375 C-99.74415358 50.37380387 -98.70564564 49.10405995 -97.1953125 45.640625 C-96.68111349 43.26007402 -96.24957775 40.86080165 -95.8828125 38.453125 C-94.15677705 28.76676998 -90.55263626 21.72223422 -82.515625 15.89453125 C-73.60151408 11.07730969 -66.32503873 11.45125853 -56.39453125 12.109375 C-50.64913959 12.30389854 -47.09561663 12.21626999 -42.66015625 8.328125 C-41.49346846 7.11009586 -40.3381438 5.88106525 -39.1953125 4.640625 C-27.88583655 -5.04555175 -13.27133326 -8.21783626 0 0 Z M-32.55859375 21.38671875 C-40.08238507 27.81816703 -47.36033158 28.11520015 -56.9453125 27.703125 C-59.14793455 27.61742484 -61.35113625 27.5452925 -63.5546875 27.48828125 C-65.00053223 27.4265271 -65.00053223 27.4265271 -66.47558594 27.36352539 C-70.89031593 27.81332059 -73.52349639 30.06478262 -76.8203125 32.890625 C-79.9007162 36.70764697 -80.2258712 41.24435302 -81.04272461 45.95776367 C-82.41881407 53.53326229 -84.84089545 59.07262586 -90.9453125 63.890625 C-93.84115544 65.88151702 -96.84391225 67.55550612 -99.9453125 69.203125 C-104.31176964 71.53692106 -106.96229852 74.17459703 -109.1953125 78.640625 C-110.12615636 85.68844277 -107.77441869 90.33435155 -104.60546875 96.58984375 C-101.07747758 104.22242299 -101.7842585 111.32474369 -104.26171875 119.16015625 C-105.14183452 121.49853915 -106.17711574 123.58164048 -107.3828125 125.765625 C-109.59550434 130.00305802 -109.80988061 132.87772213 -109.1953125 137.640625 C-106.50487795 143.35779842 -102.4564619 145.62102165 -97.1953125 148.640625 C-89.01224697 153.52318743 -84.15317926 157.67213748 -81.5078125 167.015625 C-80.82883793 169.72039257 -80.23493477 172.37960822 -79.81640625 175.13671875 C-78.93163709 180.65954096 -77.3203431 183.13848302 -72.8515625 186.546875 C-67.80775054 189.87769422 -62.05906411 188.77596433 -56.3203125 188.015625 C-46.64802238 187.02473289 -38.91104255 189.80206719 -31.1953125 195.640625 C-29.66796875 197.26171875 -29.66796875 197.26171875 -28.4453125 198.828125 C-25.83629103 202.08940184 -24.1624877 203.34366388 -20.1953125 204.640625 C-16.00345253 205.03799463 -12.63615438 204.6310342 -9.12109375 202.21484375 C-7.0865979 200.4121765 -5.14780999 198.53138344 -3.1953125 196.640625 C-1.82013715 195.5108341 -0.42458315 194.4052952 0.9921875 193.328125 C1.60449219 192.85761719 2.21679688 192.38710938 2.84765625 191.90234375 C10.02869673 187.27265099 18.62770894 187.04078137 26.8046875 188.640625 C31.46656545 189.09833665 34.82622735 189.10216281 39.1171875 187.078125 C44.26046867 182.41328859 45.82347024 178.4109292 46.8046875 171.703125 C48.16263424 162.53983736 51.20792651 157.45686614 58.29296875 151.44921875 C60.82102545 149.62886066 63.29371978 148.32100963 66.1171875 147.015625 C70.50853546 144.96996601 72.71940191 143.17385454 74.8046875 138.640625 C76.33763018 133.01983517 75.33175337 129.66418739 72.8046875 124.640625 C68.65673806 116.27065559 66.98074449 108.02887419 69.60546875 98.8359375 C70.837603 95.70565048 72.26269179 92.71806003 73.7734375 89.71484375 C75.90858652 85.25673167 76.10585123 82.41155869 74.8046875 77.640625 C72.05444987 72.67599416 69.60662295 70.63353048 64.4921875 68.265625 C55.69568814 63.75889831 50.96429427 58.56929009 47.5625 49.29296875 C46.76401154 46.49825915 46.29603545 43.76390628 45.8671875 40.890625 C45.03368366 35.67569393 43.67157968 33.2313106 39.8046875 29.640625 C36.52965753 27.57047174 34.09769846 27.44371064 30.26171875 27.5859375 C28.65006836 27.62267578 28.65006836 27.62267578 27.00585938 27.66015625 C24.76599842 27.7298695 22.52637786 27.80784989 20.28710938 27.89453125 C10.32200809 28.0965667 3.6615748 25.81361433 -3.703125 19.09375 C-4.94980961 17.87970111 -6.16978849 16.63830684 -7.3828125 15.390625 C-10.40581331 12.4718656 -12.35220697 11.71869033 -16.5703125 11.328125 C-24.11946193 11.97891374 -27.73501827 15.95675093 -32.55859375 21.38671875 Z M-53.1953125 202.640625 C-53.1953125 225.740625 -53.1953125 248.840625 -53.1953125 272.640625 C-42.00965246 266.26855292 -42.00965246 266.26855292 -30.9453125 259.703125 C-23.99912142 255.49736833 -19.50768973 253.03450465 -11.1953125 254.640625 C-5.92132862 256.93337747 -1.11078563 260.15960799 3.70214844 263.28027344 C6.30253137 264.96273207 8.93582955 266.58711936 11.57666016 268.20507812 C13.21064573 269.20790849 14.8360769 270.22463866 16.4609375 271.2421875 C18.49293847 272.72602324 18.49293847 272.72602324 19.8046875 272.640625 C19.8046875 249.540625 19.8046875 226.440625 19.8046875 202.640625 C12.70188924 203.82442471 9.28103514 205.9986826 4.4921875 211.140625 C-0.94484771 216.77097702 -8.51691909 219.71785614 -16.3203125 219.890625 C-25.4264188 219.74109945 -32.45678063 216.66584381 -39.1953125 210.640625 C-40.0409375 209.75375 -40.8865625 208.866875 -41.7578125 207.953125 C-44.92739379 204.94608634 -48.66892319 202.640625 -53.1953125 202.640625 Z " fill="#000000" transform="translate(418.1953125,168.359375)"/>
<path d="M0 0 C0.65607953 -0.00453111 1.31215906 -0.00906223 1.98811978 -0.01373065 C4.178935 -0.02635582 6.36950102 -0.02475553 8.56034851 -0.02310181 C10.13429584 -0.02908828 11.70824024 -0.0358941 13.28218079 -0.04345703 C17.55296254 -0.06111305 21.82366413 -0.06581227 26.09447885 -0.0670886 C28.764514 -0.06851109 31.43452884 -0.07278255 34.10455894 -0.07808304 C43.42463345 -0.09658261 52.74465078 -0.10475382 62.06474304 -0.10317993 C70.74383297 -0.10197883 79.4226741 -0.12307517 88.10170108 -0.15466726 C95.56005117 -0.18084572 103.01832008 -0.19154656 110.47671574 -0.19026911 C114.92817285 -0.1897599 119.37940885 -0.19542023 123.83082008 -0.21662521 C128.01946898 -0.23603391 132.20768647 -0.23611428 136.39635086 -0.22159195 C137.92976832 -0.21950594 139.46321296 -0.22419239 140.99658394 -0.23631287 C148.98665058 -0.29535694 155.50409208 -0.29610365 162.34037781 4.26742554 C168.63328319 10.56033092 168.61669333 17.67474761 168.66264343 26.11703491 C168.66046814 26.78887817 168.65829285 27.46072144 168.65605164 28.15292358 C168.65289132 30.19619109 168.67639158 32.23800832 168.70170593 34.28109741 C168.70869722 48.42447929 168.70869722 48.42447929 163.62162781 54.22836304 C163.03381531 54.69500366 162.44600281 55.16164429 161.84037781 55.64242554 C161.25256531 56.12453491 160.66475281 56.60664429 160.05912781 57.10336304 C156.97890557 59.18951355 154.28458003 59.39609097 150.6786499 59.41459656 C149.24231453 59.42532951 149.24231453 59.42532951 147.77696228 59.4362793 C146.7280481 59.4389682 145.67913391 59.4416571 144.59843445 59.44442749 C142.93955452 59.45428429 142.93955452 59.45428429 141.24716187 59.46434021 C137.58161861 59.48407797 133.91611627 59.49573492 130.25053406 59.50570679 C128.37558164 59.51182008 128.37558164 59.51182008 126.46275139 59.51805687 C120.53286356 59.53676539 114.60298877 59.55133325 108.6730786 59.55966884 C101.82853176 59.5694494 94.98430761 59.59579438 88.13987452 59.63616973 C82.21052951 59.66994717 76.2812638 59.68181186 70.35181999 59.68587303 C67.82917017 59.69075599 65.30652422 59.70241815 62.78393745 59.72091103 C59.25959887 59.74514832 55.73611135 59.74436566 52.2117157 59.73739624 C51.16482574 59.7502063 50.11793579 59.76301636 49.0393219 59.7762146 C41.96989356 59.72510047 41.96989356 59.72510047 38.71560669 57.35914612 C37.27155982 55.1627535 36.49945352 53.89217485 36.34037781 51.26742554 C37.41952019 47.24516755 38.83473686 45.44798732 42.34037781 43.26742554 C44.53486252 42.88266468 44.53486252 42.88266468 46.9594574 42.86869812 C47.88209885 42.85615997 48.8047403 42.84362183 49.75534058 42.83070374 C50.76018997 42.83213882 51.76503937 42.83357391 52.80033875 42.83505249 C53.86406204 42.82486084 54.92778534 42.81466919 56.02374268 42.8041687 C59.54079913 42.77396707 63.05758355 42.76476158 66.57475281 42.75570679 C69.01285208 42.73886546 71.45094263 42.72071597 73.88902283 42.7013092 C80.30708596 42.65374399 86.72511377 42.62397665 93.14329529 42.59786987 C99.69213334 42.56809736 106.24084963 42.52155566 112.78959656 42.47640991 C125.6398074 42.3903024 138.49000535 42.32453971 151.34037781 42.26742554 C151.34037781 34.01742554 151.34037781 25.76742554 151.34037781 17.26742554 C100.19037781 17.26742554 49.04037781 17.26742554 -3.65962219 17.26742554 C-3.98962219 25.84742554 -4.31962219 34.42742554 -4.65962219 43.26742554 C0.71072294 43.10997364 0.71072294 43.10997364 6.07939148 42.90707397 C9.93997196 42.85017252 11.94460957 43.03570631 15.35600281 45.03305054 C17.44138918 47.38116275 18.00501756 48.19121646 17.90287781 51.26742554 C17.9048114 52.25742554 17.9048114 52.25742554 17.90678406 53.26742554 C17.0143643 56.41859047 16.08578396 57.40868389 13.34037781 59.26742554 C9.75032848 59.89451177 6.22678907 59.87059593 2.59037781 59.82992554 C1.14404968 59.86569702 1.14404968 59.86569702 -0.33149719 59.90219116 C-6.94144991 59.88871979 -11.76529505 58.90171665 -16.65962219 54.26742554 C-21.99526012 48.21189237 -21.23712612 39.96682192 -21.12617493 32.3765564 C-21.09713577 30.20594066 -21.10560819 28.03776318 -21.11860657 25.86703491 C-21.05375686 11.31998523 -21.05375686 11.31998523 -16.22993469 5.56039429 C-10.79449815 1.40301985 -6.8275249 0.01952088 0 0 Z " fill="#000000" transform="translate(177.6596221923828,50.732574462890625)"/>
<path d="M0 0 C13.3425093 10.8513701 22.62306994 25.17632099 24.87402344 42.49414062 C26.30068611 63.43251337 20.77020489 79.60804859 7.70996094 95.85742188 C-3.19639571 107.8218579 -19.68112278 113.7635372 -35.47753906 114.99023438 C-52.64552374 115.51392622 -68.18930333 109.52372516 -81.25097656 98.54882812 C-93.29753415 87.16741789 -100.93446621 72.57040651 -101.81347656 55.91992188 C-102.17328576 36.79572351 -97.12778868 19.87594145 -83.61035156 5.76757812 C-61.18631035 -15.71723623 -24.98938843 -19.1246866 0 0 Z M-76.61035156 22.76757812 C-83.89411724 33.44801259 -86.61433803 44.94200456 -85.61035156 57.76757812 C-83.02794816 70.5615424 -76.94797268 81.6537476 -66.61035156 89.76757812 C-54.15110977 97.32387755 -42.08918677 100.84291423 -27.61035156 97.58007812 C-15.36258138 94.18140021 -5.14897582 87.81888379 1.76464844 76.89257812 C8.73051153 64.10538469 10.9066921 52.33991936 7.38574219 38.08398438 C3.7512944 25.98341115 -3.71420451 16.47307596 -14.48535156 9.76757812 C-36.41785114 -1.92788521 -60.85342816 3.9216737 -76.61035156 22.76757812 Z " fill="#000000" transform="translate(439.6103515625,225.232421875)"/>
<path d="M0 0 C1.21498984 -0.0083016 1.21498984 -0.0083016 2.45452493 -0.0167709 C5.16623953 -0.03037449 7.87703326 -0.01541011 10.58872986 -0.00050354 C12.53369538 -0.0042868 14.47865822 -0.00978689 16.4236145 -0.01687622 C21.70452474 -0.03084628 26.98510974 -0.01965049 32.26600194 -0.00316501 C37.78946904 0.01067597 43.31291708 0.00422657 48.83639526 0.0007019 C58.11131539 -0.00200074 67.38610614 0.01148089 76.66099548 0.03465271 C87.38960426 0.06127058 98.11799681 0.06300724 108.8466273 0.05126435 C119.16176122 0.04049228 129.4768168 0.04666865 139.7919445 0.06081963 C144.18461899 0.06658359 148.57723623 0.06649354 152.96991158 0.06175423 C158.14015142 0.05698847 163.31015391 0.06706953 168.48034859 0.08870888 C170.37986958 0.0942821 172.27941336 0.09473716 174.178936 0.08975601 C176.76774906 0.08381774 179.35583281 0.09627994 181.94458008 0.11352539 C182.69992588 0.10751535 183.45527167 0.1015053 184.23350674 0.09531313 C187.35052932 0.13318781 189.58003401 0.32419294 192.3479681 1.81449795 C194.84998713 4.51829909 194.84673625 6.90161123 194.90879822 10.50120544 C193.56317422 13.44876276 192.82325278 15.04397816 189.90879822 16.50120544 C187.32555402 16.6055037 184.7688803 16.64900228 182.18508911 16.64837646 C180.97500253 16.6538915 180.97500253 16.6538915 179.74046975 16.65951794 C177.02207746 16.67058044 174.30372335 16.67440294 171.58531189 16.6782074 C169.64241412 16.68447006 167.69951756 16.69111669 165.75662231 16.69812012 C160.46732169 16.71554705 155.17803011 16.72608628 149.88870788 16.73432565 C146.58636997 16.73947173 143.2840349 16.74554761 139.98169899 16.75183678 C129.65591004 16.77089273 119.33012826 16.78512356 109.00432509 16.79344875 C97.07275449 16.80322663 85.14136914 16.8295589 73.20986384 16.86994964 C63.99538264 16.90007563 54.78095465 16.91491424 45.56642514 16.91822976 C40.05923683 16.92058408 34.55224633 16.92959419 29.0451107 16.95469093 C23.86505558 16.97791543 18.6853293 16.98222755 13.50523567 16.97192955 C11.6028929 16.97143272 9.70053424 16.97779622 7.79824066 16.9914856 C5.20291608 17.00911876 2.60878265 17.00214114 0.01345825 16.98895264 C-0.74102106 16.99992188 -1.49550038 17.01089113 -2.27284271 17.02219278 C-5.93384145 16.97721411 -7.94544056 16.59487904 -11.05623913 14.59572124 C-13.09120178 12.50120544 -13.09120178 12.50120544 -13.75526428 10.50120544 C-13.74237366 9.84120544 -13.72948303 9.18120544 -13.71620178 8.50120544 C-13.72909241 7.84120544 -13.74198303 7.18120544 -13.75526428 6.50120544 C-11.66698312 0.21179394 -5.70115079 -0.07271079 0 0 Z " fill="#000000" transform="translate(72.09120178222656,180.49879455566406)"/>
<path d="M0 0 C0.80590968 -0.00568326 1.61181935 -0.01136651 2.44215053 -0.01722199 C5.14025939 -0.03013204 7.83687007 -0.00733014 10.53489685 0.0153656 C12.47000951 0.01350166 14.40512111 0.00946527 16.34022522 0.00341797 C21.59436797 -0.00656542 26.84797215 0.01462759 32.10203671 0.04189801 C37.59746348 0.06571014 43.09287923 0.06278292 48.58834839 0.0632019 C57.81622956 0.06783133 67.04390452 0.09148331 76.27171326 0.12767029 C86.94576187 0.16941687 97.61962478 0.18698581 108.29375035 0.19029003 C119.65103956 0.19388772 131.0082618 0.21275979 142.3655231 0.23741031 C145.6413728 0.24364318 148.9172174 0.24727682 152.19307137 0.25044441 C157.3370151 0.25633934 162.48082575 0.27263678 167.6247139 0.29704857 C169.51455723 0.30449742 171.40441733 0.30856107 173.29427528 0.30902863 C175.86982397 0.31028374 178.44502018 0.32380859 181.02050781 0.34057617 C181.77196266 0.33816109 182.52341751 0.335746 183.29764372 0.33325773 C186.98979458 0.37100461 189.85041918 0.4908371 192.94676208 2.61473083 C195.02835228 5.29106109 194.94263799 6.73226751 194.82176208 10.17723083 C193.94676208 13.61473083 193.94676208 13.61473083 192.38983822 15.30534458 C188.96730431 17.13967908 185.77030766 17.03254892 181.98254395 17.00241089 C180.76989409 17.0104892 180.76989409 17.0104892 179.53274626 17.0187307 C176.82041822 17.03305258 174.10857531 17.02589621 171.39622498 17.01878357 C169.45302944 17.02448493 167.50983727 17.03144828 165.56665039 17.0395813 C160.2856801 17.05755372 155.00487559 17.05633664 149.72388387 17.05063891 C145.31765524 17.04755295 140.91145873 17.05363291 136.50523466 17.05967766 C126.11177468 17.07373471 115.71839687 17.07215179 105.32493591 17.06077576 C94.59690648 17.04929311 83.869127 17.06337006 73.14113051 17.09017223 C63.93508518 17.11231226 54.72911841 17.11897044 45.52304834 17.11309582 C40.02261938 17.10972101 34.52235066 17.1121761 29.02194405 17.12934685 C23.85003838 17.14478681 18.67850364 17.14089315 13.50661278 17.1220417 C11.60750526 17.11834765 9.70837044 17.12148797 7.80928802 17.13192749 C5.21841617 17.14508344 2.62878205 17.13363842 0.03796387 17.11593628 C-1.09170875 17.13034379 -1.09170875 17.13034379 -2.24420303 17.14504236 C-5.84083023 17.0944137 -7.9266248 16.69225645 -11.01987553 14.79824924 C-13.05323792 12.61473083 -13.05323792 12.61473083 -13.67823792 9.17723083 C-12.30947421 1.37527771 -7.16060199 -0.1261568 0 0 Z " fill="#000000" transform="translate(72.05323791503906,338.38526916503906)"/>
<path d="M0 0 C0.81251679 -0.00694553 1.62503358 -0.01389106 2.46217209 -0.02104706 C5.18844351 -0.03936306 7.91384926 -0.02904017 10.64015198 -0.01878357 C12.59320224 -0.02583974 14.54624703 -0.03458347 16.49928284 -0.04489136 C21.80715295 -0.06742928 27.1147255 -0.06443527 32.4226253 -0.05556989 C36.85123034 -0.05046652 41.27977913 -0.05774729 45.70837837 -0.06504196 C56.15459882 -0.08205505 66.60067324 -0.078461 77.04689026 -0.06175232 C87.82950663 -0.04482876 98.61171823 -0.06066572 109.39429039 -0.0929752 C118.64705703 -0.11965197 127.89969753 -0.12695228 137.15249878 -0.11846012 C142.68090391 -0.11352542 148.20906544 -0.11577592 153.73744011 -0.13624763 C158.93568694 -0.15457463 164.13335056 -0.14868238 169.33156586 -0.12404823 C171.24034647 -0.1190309 173.1491713 -0.12255394 175.05791664 -0.13519669 C177.66216947 -0.15108271 180.26449132 -0.13621972 182.86865234 -0.11352539 C183.62565837 -0.12536112 184.38266439 -0.13719685 185.16260999 -0.14939123 C189.08315506 -0.07988608 190.86115796 0.40959524 194.00589085 2.82736301 C195.99781799 5.5146637 195.99781799 5.5146637 195.99781799 9.1396637 C195.0523804 12.33051556 194.63410352 13.61653812 191.99781799 15.5146637 C188.93001938 17.048563 185.71638106 16.65897726 182.35003662 16.65510559 C181.55147934 16.65807671 180.75292205 16.66104784 179.93016607 16.66410899 C177.23940873 16.67281918 174.54869576 16.67430619 171.85792542 16.67579651 C169.9347321 16.68042305 168.0115397 16.68544749 166.08834839 16.69084167 C160.85276123 16.70398366 155.61718691 16.71041416 150.38158584 16.71485233 C147.11274972 16.71778022 143.84391713 16.72188449 140.57508278 16.72635651 C130.35394309 16.7400363 120.13281145 16.74970054 109.91166323 16.7535584 C98.10124695 16.7580402 86.29094635 16.77559178 74.48056525 16.80455899 C65.35950074 16.82615578 56.23846882 16.83626161 47.11737901 16.83759952 C41.66612038 16.838649 36.21497041 16.84458723 30.76373863 16.86241913 C25.636252 16.87886513 20.50895612 16.8810722 15.38145256 16.87228012 C13.49846639 16.87150788 11.61547012 16.87587703 9.73250961 16.88573837 C7.16362777 16.89840392 4.59542699 16.89261063 2.02655029 16.88215637 C0.90650416 16.89424098 0.90650416 16.89424098 -0.23616916 16.90656972 C-4.65779586 16.86443059 -7.48796008 16.24668845 -11.00218201 13.5146637 C-12.54805076 10.42292618 -12.29577722 7.92036817 -12.00218201 4.5146637 C-8.80558812 -0.10203801 -5.21345525 -0.05658692 0 0 Z " fill="#000000" transform="translate(71.00218200683594,233.48533630371094)"/>
<path d="M0 0 C1.18686691 -0.00445668 1.18686691 -0.00445668 2.39771092 -0.0090034 C5.05772326 -0.01769772 7.71769063 -0.01919926 10.37771606 -0.02069092 C12.28135271 -0.02531853 14.18498842 -0.03034311 16.08862305 -0.03573608 C21.26630159 -0.04886651 26.44396716 -0.05530615 31.62165976 -0.05974674 C34.85482172 -0.06267608 38.08798012 -0.06678059 41.32114029 -0.07125092 C51.43228574 -0.08492676 61.54342308 -0.09459332 71.65457714 -0.09845281 C83.33537276 -0.10293568 95.01605149 -0.1204939 106.69681156 -0.1494534 C115.72023252 -0.17105004 124.74362054 -0.18115599 133.76706707 -0.18249393 C139.1590665 -0.18354329 144.55095605 -0.18947906 149.94292831 -0.20731354 C155.01379531 -0.2237596 160.08446943 -0.22596659 165.15535355 -0.21717453 C167.01737738 -0.21640233 168.87941143 -0.22077089 170.7414093 -0.23063278 C173.28177626 -0.24329951 175.82145463 -0.23750447 178.36181641 -0.22705078 C179.10004981 -0.23510719 179.83828321 -0.24316359 180.59888732 -0.25146413 C185.01097374 -0.20894966 187.81264081 0.40691558 191.30789185 3.14044189 C193.30789185 6.14044189 193.30789185 6.14044189 193.12039185 9.64044189 C192.03673508 14.30850181 192.03673508 14.30850181 189.30789185 16.14044189 C186.5899302 16.43735495 184.10037959 16.549436 181.38127136 16.52812195 C180.15659414 16.53620025 180.15659414 16.53620025 178.90717596 16.54444176 C176.16177129 16.55878942 173.41684416 16.55160095 170.67141724 16.54449463 C168.70704255 16.55019465 166.74267117 16.55715747 164.77830505 16.56529236 C159.43536181 16.58327971 154.09258228 16.5820449 148.74961782 16.57634997 C144.29363865 16.57326613 139.83769131 16.5793416 135.38171667 16.58538872 C124.87181145 16.5994507 114.36198749 16.59785879 103.8520813 16.58648682 C92.99965377 16.57500391 82.1474733 16.58908046 71.29507834 16.61588329 C61.98630976 16.63801528 52.67761888 16.64468332 43.36882585 16.63880688 C37.80525737 16.63543011 32.24184729 16.63790005 26.67830086 16.65505791 C21.44731705 16.67048509 16.21670021 16.66661853 10.98573112 16.64775276 C9.06362861 16.64405513 7.14149916 16.64720934 5.21942139 16.65763855 C2.59968539 16.67077017 -0.01882172 16.65937125 -2.63850403 16.64164734 C-3.40299596 16.65125235 -4.1674879 16.66085735 -4.95514625 16.67075342 C-8.40137938 16.62262784 -10.35065208 16.39080183 -13.16420841 14.32786655 C-15.40419785 11.12097542 -15.23709441 8.95534569 -14.69210815 5.14044189 C-10.65339317 -0.1516674 -6.20659934 -0.00724107 0 0 Z " fill="#000000" transform="translate(73.69210815429688,285.85955810546875)"/>
<path d="M0 0 C0.8383136 -0.00571014 1.6766272 -0.01142029 2.54034424 -0.01730347 C3.91499344 -0.01898026 3.91499344 -0.01898026 5.31741333 -0.02069092 C6.285177 -0.02565582 7.25294067 -0.03062073 8.25003052 -0.03573608 C11.45625516 -0.050359 14.66243033 -0.05715963 17.86868286 -0.06268311 C20.09444175 -0.06843406 22.32020062 -0.0741918 24.54595947 -0.07995605 C29.21489696 -0.09046614 33.88381723 -0.09630889 38.55276489 -0.09979248 C44.53732014 -0.10527991 50.52164818 -0.12931339 56.50613213 -0.15776443 C61.10433621 -0.17638074 65.70248544 -0.18159586 70.30072403 -0.18312836 C72.50714486 -0.18615723 74.71356467 -0.19419364 76.91994858 -0.20731354 C80.0057382 -0.22435412 83.09097084 -0.2224986 86.17678833 -0.21600342 C87.08917267 -0.2252182 88.00155701 -0.23443298 88.94158936 -0.243927 C93.72753205 -0.2123451 97.0142613 -0.0237908 100.87649536 3.14044189 C102.30311755 5.99368627 102.18683404 7.97498738 101.87649536 11.14044189 C100.47805786 13.80021667 100.47805786 13.80021667 97.87649536 16.14044189 C94.57172997 16.89411346 91.31626347 16.81303229 87.93899536 16.77154541 C86.93046509 16.77870071 85.92193481 16.78585602 84.88284302 16.79322815 C81.54693395 16.81014594 78.21236288 16.79069353 74.87649536 16.76934814 C72.56008798 16.77017655 70.24368065 16.77263487 67.92727661 16.7766571 C63.07162795 16.77951723 58.21644002 16.76479224 53.36087036 16.73736572 C47.13282562 16.70328321 40.90560493 16.70929947 34.67752075 16.7280283 C29.89400347 16.73859038 25.11067836 16.72966754 20.32717896 16.71464348 C18.03063528 16.70945543 15.73407158 16.70995099 13.43753052 16.71618843 C10.22924556 16.72163086 7.02214538 16.70129542 3.81399536 16.67388916 C2.86218384 16.68041504 1.91037231 16.68694092 0.92971802 16.69366455 C-5.46570616 16.60063846 -5.46570616 16.60063846 -8.71725464 14.32585144 C-10.77612889 11.12621878 -10.58873678 8.86229903 -10.12350464 5.14044189 C-7.66619238 0.69387685 -4.86365991 0.01986851 0 0 Z " fill="#000000" transform="translate(69.12350463867188,415.85955810546875)"/>
</svg>
