<?xml version="1.0" encoding="UTF-8"?>
<svg version="1.1" xmlns="http://www.w3.org/2000/svg" width="512" height="512">
<path d="M0 0 C1.05546325 0.9388302 2.12415636 1.86296662 3.20458984 2.77294922 C9.88005442 8.43722339 15.99757181 14.67413387 22.17333984 20.87011719 C24.12217768 22.82431366 26.0763017 24.77310889 28.03100586 26.72143555 C34.08874156 32.77593362 40.03764133 38.84123803 45.56420898 45.39135742 C47.01866416 46.99904115 48.47641793 48.60375457 49.93920898 50.20385742 C53.04949749 53.64513947 56.0289921 57.1545704 58.93920898 60.76635742 C62.62187283 65.32156881 66.49447201 69.63048298 70.48217773 73.91479492 C73.43323879 77.10424253 76.22399416 80.37482535 78.93920898 83.76635742 C83.00332659 88.81726617 87.33843248 93.55705178 91.78442383 98.26977539 C94.57019732 101.22548714 97.29328243 104.21452194 99.94702148 107.28979492 C109.46635115 118.229273 119.94674527 128.69076049 131.56420898 137.39135742 C132.08515137 137.78871094 132.60609375 138.18606445 133.14282227 138.59545898 C151.87909361 152.82650624 172.27837431 162.83686057 196.25170898 162.70385742 C197.83109253 162.6964856 197.83109253 162.6964856 199.44238281 162.68896484 C225.00908294 162.30672866 246.76808482 151.76055931 264.87670898 134.14135742 C279.84366702 118.23896451 288.76872141 95.37796835 288.65063477 73.56274414 C287.67012908 48.92823112 277.04647603 27.2249546 259.37670898 10.20385742 C241.73283353 -5.3207816 218.45655876 -12.45658836 195.17358398 -11.46411133 C165.66983564 -8.28301998 140.07937408 8.71415452 118.41967773 27.89526367 C111.24307299 34.16865687 111.24307299 34.16865687 105.56420898 34.39135742 C101.72164967 33.21905119 99.30362469 32.22618161 96.62670898 29.20385742 C95.20371555 25.43711009 94.59456742 22.29908582 95.56420898 18.39135742 C110.25391086 -6.76153561 150.08445914 -24.51614426 176.56420898 -31.60864258 C203.44100931 -38.64395218 232.88857408 -34.11505594 256.86425781 -20.20556641 C283.39567109 -4.13227639 301.64698911 20.2458978 309.06030273 50.40991211 C315.86331705 80.16607184 309.44060092 109.58871549 293.56420898 135.39135742 C275.99198481 161.54234268 249.67539496 178.03778832 219.12670898 184.76635742 C182.35504267 190.02780411 150.20726175 180.59187062 120.52124023 158.45385742 C103.03856111 145.05456903 86.80267794 129.17943295 72.56420898 112.39135742 C72.06373047 111.80733154 71.56325195 111.22330566 71.04760742 110.62158203 C69.59186357 108.92233106 68.1403333 107.21955383 66.68920898 105.51635742 C63.14019566 101.35929054 59.55746876 97.2456024 55.87670898 93.20385742 C52.90396875 89.93331137 50.07934984 86.58900129 47.31420898 83.14135742 C42.65762086 77.38189317 37.63586722 72.01187043 32.57202148 66.61401367 C29.7552319 63.60891745 27.0232563 60.54080432 24.33056641 57.42407227 C16.97826829 48.9630862 9.29451519 40.88178528 1.37670898 32.95385742 C0.82617859 32.40231995 0.27564819 31.85078247 -0.29156494 31.28253174 C-8.236047 23.34785234 -16.16383063 15.78838781 -25.43579102 9.39135742 C-26.34458008 8.7494043 -27.25336914 8.10745117 -28.18969727 7.44604492 C-50.23490254 -7.37911496 -78.00123047 -15.06584739 -104.4050293 -10.04321289 C-119.46216874 -6.82107918 -132.63082583 -0.60787695 -144.43579102 9.39135742 C-145.0996582 9.91084961 -145.76352539 10.4303418 -146.44750977 10.96557617 C-161.60250134 23.26225893 -172.00739561 44.16656049 -174.43579102 63.39135742 C-175.49889238 81.86758014 -174.31185705 98.83264599 -165.43579102 115.39135742 C-164.6990918 116.83381836 -164.6990918 116.83381836 -163.94750977 118.30541992 C-159.52144378 126.48149408 -153.95421611 132.86343025 -147.43579102 139.39135742 C-146.77836914 140.06038086 -146.12094727 140.7294043 -145.44360352 141.41870117 C-128.49233295 157.46056881 -104.30401412 163.36348395 -81.58813477 162.73901367 C-55.21648823 161.37874571 -30.44243635 146.13201208 -10.92407227 129.38745117 C-10.04875854 128.63806274 -10.04875854 128.63806274 -9.15576172 127.87353516 C-8.04185564 126.91363114 -6.93443689 125.9461256 -5.83496094 124.96972656 C-1.63237664 121.30702255 1.42956665 119.3151202 7.06420898 119.51635742 C10.88097273 120.47054836 12.76349129 121.67301378 15.56420898 124.39135742 C17.13633049 127.53560044 17.08214649 130.96927034 16.56420898 134.39135742 C6.05834954 155.53522548 -29.44772144 172.84899601 -51.06079102 180.20385742 C-62.85375241 184.08348961 -74.39699908 185.91182505 -86.81079102 185.76635742 C-88.71803955 185.75004272 -88.71803955 185.75004272 -90.66381836 185.73339844 C-121.39206718 185.21281373 -147.49162392 172.81844561 -169.03710938 151.15673828 C-189.28547622 130.07790394 -198.86907884 100.93807388 -198.58813477 72.09448242 C-197.58991544 47.8300742 -189.454116 23.878168 -173.43579102 5.39135742 C-172.5940332 4.38975586 -171.75227539 3.3881543 -170.88500977 2.35620117 C-153.93093474 -17.32008619 -130.91468437 -29.28690624 -105.43579102 -33.60864258 C-104.68555664 -33.74012695 -103.93532227 -33.87161133 -103.16235352 -34.00708008 C-65.783823 -39.30595222 -27.58887536 -24.80166618 0 0 Z " fill="#000000" transform="translate(199.435791015625,181.608642578125)"/>
</svg>
