<?xml version="1.0" encoding="UTF-8"?>
<svg version="1.1" xmlns="http://www.w3.org/2000/svg" width="128" height="128">
<path d="M0 0 C0.89162842 0.37125 0.89162842 0.37125 1.80126953 0.75 C19.98742322 8.48459847 30.65878444 20.14562913 38.95703125 38.1015625 C43.77060527 51.47861091 44.66432909 69.81512587 39 83 C38.62875 83.89162842 38.62875 83.89162842 38.25 84.80126953 C30.51540153 102.98742322 18.85437087 113.65878444 0.8984375 121.95703125 C-12.47861091 126.77060527 -30.81512587 127.66432909 -44 122 C-44.59441895 121.7525 -45.18883789 121.505 -45.80126953 121.25 C-63.98742322 113.51540153 -74.65878444 101.85437087 -82.95703125 83.8984375 C-87.77060527 70.52138909 -88.66432909 52.18487413 -83 39 C-82.7525 38.40558105 -82.505 37.81116211 -82.25 37.19873047 C-74.51540153 19.01257678 -62.85437087 8.34121556 -44.8984375 0.04296875 C-31.52138909 -4.77060527 -13.18487413 -5.66432909 0 0 Z M-69 26 C-78.37975187 38.71593921 -81.4598598 53.50419653 -80 69 C-77.23494912 86.19516013 -68.11327216 99.80243523 -54.15625 110.09765625 C-40.69821281 118.61746205 -25.62085932 120.8686809 -10.11328125 118.375 C6.40180451 114.57296587 19.88079072 104.55613951 28.9375 90.25 C37.1796753 74.875173 38.38002651 58.1693126 33.37890625 41.59765625 C27.51318868 26.29361693 15.99959146 13.69884667 1 7 C-25.08915442 -2.69685386 -51.06282354 4.64758514 -69 26 Z " fill="#000000" transform="translate(86,3)"/>
<path d="M0 0 C5.17317373 0.32703972 9.11246645 3.25358183 13.375 5.9375 C14.16213379 6.42605469 14.94926758 6.91460937 15.76025391 7.41796875 C33.68791853 18.6123906 33.68791853 18.6123906 42 25 C41.67553744 27.91463246 41.49256811 29.53478088 39.3203125 31.58642578 C38.59585938 32.0348584 37.87140625 32.48329102 37.125 32.9453125 C36.31232666 33.46013184 35.49965332 33.97495117 34.66235352 34.50537109 C33.78377686 35.03984863 32.9052002 35.57432617 32 36.125 C30.17536794 37.26496373 28.35115667 38.40560121 26.52734375 39.546875 C25.14264893 40.40442383 25.14264893 40.40442383 23.72998047 41.27929688 C21.13807047 42.91297437 18.597446 44.60201864 16.06640625 46.328125 C15.30521484 46.8422998 14.54402344 47.35647461 13.75976562 47.88623047 C12.32321385 48.8595741 10.89317625 49.84262045 9.47070312 50.83642578 C4.60096254 54.08493446 4.60096254 54.08493446 1.28100586 53.61572266 C0.52827393 53.41253418 -0.22445801 53.2093457 -1 53 C-1.02526692 45.61271898 -1.0428316 38.22544902 -1.05493164 30.83813477 C-1.05997363 28.32283105 -1.06680703 25.80753028 -1.07543945 23.29223633 C-1.08751094 19.68570225 -1.09322949 16.07920677 -1.09765625 12.47265625 C-1.10281754 11.34038101 -1.10797882 10.20810577 -1.11329651 9.04151917 C-1.11337204 8.00051559 -1.11344757 6.95951202 -1.11352539 5.88696289 C-1.115746 4.96540909 -1.11796661 4.04385529 -1.12025452 3.09437561 C-1 1 -1 1 0 0 Z M5 9 C5 20.88 5 32.76 5 45 C15.28742196 39.00588423 15.28742196 39.00588423 25.25 32.5625 C25.91128906 32.11712891 26.57257813 31.67175781 27.25390625 31.21289062 C28.83817104 30.14523392 30.41944284 29.07313785 32 28 C30.84353332 24.53059997 30.27142872 24.26808604 27.24609375 22.4765625 C26.47330078 22.0125 25.70050781 21.5484375 24.90429688 21.0703125 C24.09025391 20.59335937 23.27621094 20.11640625 22.4375 19.625 C20.85264408 18.68005724 19.26800718 17.73474702 17.68359375 16.7890625 C16.62483032 16.16572021 16.62483032 16.16572021 15.54467773 15.52978516 C12.0014173 13.39968155 8.5058383 11.19114894 5 9 Z " fill="#000000" transform="translate(49,37)"/>
</svg>
