<?xml version="1.0" encoding="UTF-8"?>
<svg version="1.1" xmlns="http://www.w3.org/2000/svg" width="512" height="512">
<path d="M0 0 C0.92180815 -0.00382555 1.8436163 -0.00765109 2.79335803 -0.01159257 C5.87154919 -0.02188285 8.94955243 -0.01793793 12.02775574 -0.01396179 C14.23913749 -0.01831049 16.45051774 -0.02349417 18.66189575 -0.02944946 C24.66197831 -0.04283456 30.66199787 -0.04341859 36.66209245 -0.04088616 C41.67441333 -0.03981599 46.68672148 -0.04470109 51.69903964 -0.04949158 C64.20277867 -0.06121949 76.70648714 -0.06036269 89.21022632 -0.05393478 C100.05389293 -0.04876814 110.89746964 -0.0600157 121.74111847 -0.07903299 C132.89009517 -0.09843499 144.03903916 -0.1063721 155.18803519 -0.10290974 C161.4414065 -0.10109829 167.6946955 -0.10371929 173.94805336 -0.11762428 C179.83073844 -0.13021558 185.7132439 -0.12824602 191.59592628 -0.11521339 C193.75094667 -0.11285081 195.90597974 -0.11557085 198.06098557 -0.12383652 C201.01099736 -0.13433264 203.96040964 -0.12618013 206.91040039 -0.11352539 C207.75585145 -0.12089968 208.60130252 -0.12827396 209.47237331 -0.13587171 C222.4153309 -0.01969181 233.35982484 5.62496794 242.77067566 14.29585266 C252.32669503 24.30976463 257.7606778 36.68323899 257.77989674 50.49262238 C257.78224897 51.21374403 257.7846012 51.93486569 257.78702471 52.67783952 C257.79369638 55.10094075 257.79325704 57.52398814 257.79284668 59.94709778 C257.79614645 61.69931383 257.79987226 63.45152913 257.80398816 65.20374346 C257.81400347 70.02442032 257.8177242 74.84508474 257.82037747 79.66577053 C257.82428192 84.8629859 257.83386018 90.06019143 257.84259033 95.25740051 C257.86235096 107.81166066 257.87242053 120.36592162 257.88131812 132.92019343 C257.88570176 138.83293507 257.89106838 144.74567582 257.89630699 150.65841675 C257.91331901 170.31504378 257.92781299 189.97167026 257.93505573 209.62830353 C257.93696561 214.72907512 257.93888595 219.82984671 257.94084167 224.93061829 C257.94132542 226.19838264 257.94180916 227.46614699 257.94230755 228.77232844 C257.95060714 249.30741066 257.97594298 269.84243463 258.00842235 290.37749141 C258.04149971 311.46261503 258.05950512 332.54770905 258.06269997 353.63285875 C258.06486446 365.47046554 258.07360417 377.30798736 258.09916115 389.14556885 C258.12087736 399.2274327 258.12891399 409.30919096 258.11919437 419.39107555 C258.11465236 424.53292996 258.11653032 429.67456652 258.13595581 434.81639099 C258.15360712 439.52940623 258.15257372 444.24204501 258.13705852 448.95506436 C258.13468544 450.65433201 258.13899031 452.35362586 258.15088717 454.05285352 C258.2637825 471.2517631 254.39237274 485.52091281 242.55973816 498.44819641 C232.71301726 507.77243825 220.69531134 512.58084046 207.29135132 512.52139282 C206.36954317 512.52521837 205.44773502 512.52904392 204.49799329 512.53298539 C201.41980213 512.54327567 198.34179889 512.53933076 195.26359558 512.53535461 C193.05221383 512.53970332 190.84083358 512.544887 188.62945557 512.55084229 C182.629373 512.56422738 176.62935345 512.56481142 170.62925887 512.56227899 C165.61693799 512.56120881 160.60462983 512.56609392 155.59231168 512.57088441 C143.08857265 512.58261231 130.58486418 512.58175551 118.081125 512.5753276 C107.23745839 512.57016097 96.39388168 512.58140852 85.55023285 512.60042582 C74.40125615 512.61982782 63.25231216 512.62776493 52.10331613 512.62430257 C45.84994481 512.62249111 39.59665582 512.62511211 33.34329796 512.63901711 C27.46061288 512.65160841 21.57810741 512.64963885 15.69542503 512.63660622 C13.54040465 512.63424363 11.38537158 512.63696367 9.23036575 512.64522934 C6.28035396 512.65572547 3.33094168 512.64757295 0.38095093 512.63491821 C-0.46450013 512.6422925 -1.3099512 512.64966678 -2.18102199 512.65726453 C-15.12397958 512.54108464 -26.06847352 506.89642488 -35.47932434 498.22554016 C-45.03534372 488.21162819 -50.46932648 475.83815384 -50.48854542 462.02877045 C-50.49089765 461.30764879 -50.49324988 460.58652713 -50.49567339 459.8435533 C-50.50234506 457.42045207 -50.50190572 454.99740468 -50.50149536 452.57429504 C-50.50479513 450.82207899 -50.50852094 449.06986369 -50.51263684 447.31764936 C-50.52265216 442.4969725 -50.52637288 437.67630809 -50.52902615 432.85562229 C-50.5329306 427.65840692 -50.54250886 422.46120139 -50.55123901 417.26399231 C-50.57099964 404.70973216 -50.58106921 392.1554712 -50.5899668 379.60119939 C-50.59435044 373.68845775 -50.59971706 367.77571701 -50.60495567 361.86297607 C-50.62196769 342.20634904 -50.63646167 322.54972256 -50.64370441 302.89308929 C-50.64561429 297.7923177 -50.64753463 292.69154611 -50.64949036 287.59077454 C-50.6499741 286.32301019 -50.65045784 285.05524584 -50.65095624 283.74906439 C-50.65925582 263.21398216 -50.68459167 242.6789582 -50.71707103 222.14390141 C-50.75014839 201.05877779 -50.7681538 179.97368377 -50.77134866 158.88853407 C-50.77351314 147.05092728 -50.78225286 135.21340546 -50.80780983 123.37582397 C-50.82952604 113.29396012 -50.83756267 103.21220186 -50.82784305 93.13031727 C-50.82330104 87.98846286 -50.825179 82.8468263 -50.84460449 77.70500183 C-50.8622558 72.99198659 -50.8612224 68.27934781 -50.8457072 63.56632847 C-50.84333413 61.86706081 -50.84763899 60.16776696 -50.85953585 58.4685393 C-50.97243118 41.26962972 -47.10102143 27.00048001 -35.26838684 14.07319641 C-25.42166594 4.74895458 -13.40396002 -0.05944764 0 0 Z M-18.35432434 35.26069641 C-23.10014362 42.8220406 -24.47790156 49.48673371 -24.48295879 58.37696552 C-24.48471183 59.07342543 -24.48646487 59.76988534 -24.48827103 60.48745009 C-24.49292201 62.82060237 -24.49046785 65.15369207 -24.48803711 67.48684692 C-24.48990553 69.17677969 -24.49220636 70.86671202 -24.49490243 72.55664366 C-24.50102292 77.20036224 -24.50088654 81.84406282 -24.49970806 86.4877845 C-24.49950411 91.49608076 -24.50502219 96.50437123 -24.50976562 101.51266479 C-24.51807406 111.32473722 -24.52082055 121.13680363 -24.521378 130.94887928 C-24.52185306 138.92396571 -24.52390731 146.89905016 -24.52707863 154.87413597 C-24.53588565 177.48148376 -24.54049792 200.08882681 -24.53974815 222.69617633 C-24.5397082 223.91508758 -24.53966824 225.13399884 -24.53962708 226.3898468 C-24.53958619 227.61024506 -24.53954531 228.83064331 -24.53950319 230.08802333 C-24.53909669 249.86914092 -24.54866725 269.65023949 -24.56276544 289.43135158 C-24.57712481 309.7390392 -24.58403587 330.04671753 -24.58317167 350.35441035 C-24.58283955 361.75701144 -24.58559309 373.15959258 -24.59634972 384.5621891 C-24.60544892 394.27009413 -24.60763472 403.97797016 -24.60084029 413.6858776 C-24.5975722 418.63883129 -24.59752889 423.59172932 -24.60619354 428.54467773 C-24.61404657 433.08032995 -24.61263933 437.61588227 -24.60390941 442.15153202 C-24.60237179 443.79080253 -24.60420044 445.43008046 -24.60976949 447.06934223 C-24.64837935 459.2421951 -24.55126873 469.57852586 -16.35432434 479.26069641 C-9.7247744 485.51011161 -2.30682457 486.56296627 6.47523499 486.52139282 C7.34057897 486.52521837 8.20592295 486.52904392 9.09748948 486.53298539 C11.9845451 486.54326836 14.87140009 486.53933219 17.75846863 486.53535461 C19.83354373 486.5397037 21.90861723 486.5448875 23.98368835 486.55084229 C29.61181594 486.56422258 35.23987633 486.56481201 40.86801672 486.56227899 C45.56976617 486.56120859 50.27150206 486.56609442 54.9732486 486.57088441 C66.06735571 486.58197631 77.16142897 486.58241881 88.25553894 486.57637024 C99.69298359 486.57033027 111.13030522 486.58264284 122.56772888 486.60394031 C132.39468891 486.62156479 142.22160981 486.62755631 152.04858506 486.62430257 C157.91459951 486.62249088 163.78052622 486.62511455 169.64652634 486.63901711 C175.1639671 486.65160447 180.68121631 486.6496426 186.19865417 486.63660622 C188.22025238 486.63424286 190.24186411 486.63696646 192.26344681 486.64522934 C195.02990178 486.65571887 197.79571663 486.64757841 200.56214905 486.63491821 C201.35603968 486.6422925 202.1499303 486.64966678 202.96787822 486.65726453 C210.90388514 486.58122077 218.17095834 484.63799094 224.07536316 479.13179016 C230.31229577 471.7002212 231.76892964 463.60289469 231.77431011 454.1444273 C231.77693967 453.09973744 231.77693967 453.09973744 231.77962235 452.03394273 C231.78427333 449.70079046 231.78181917 447.36770075 231.77938843 445.0345459 C231.78125685 443.34461313 231.78355768 441.6546808 231.78625375 439.96474916 C231.79237424 435.32103058 231.79223786 430.67733001 231.79105937 426.03360832 C231.79085543 421.02531206 231.79637351 416.01702159 231.80111694 411.00872803 C231.80942538 401.1966556 231.81217187 391.38458919 231.81272932 381.57251354 C231.81320438 373.59742711 231.81525863 365.62234266 231.81842995 357.64725685 C231.82723697 335.03990906 231.83184924 312.43256601 231.83109947 289.82521649 C231.83105952 288.60630524 231.83101956 287.38739398 231.83097839 286.13154602 C231.83093751 284.91114777 231.83089663 283.69074951 231.83085451 282.43336949 C231.83044801 262.6522519 231.84001857 242.87115333 231.85411676 223.09004124 C231.86847613 202.78235363 231.87538719 182.47467529 231.87452298 162.16698247 C231.87419087 150.76438138 231.8769444 139.36180024 231.88770103 127.95920372 C231.89680024 118.25129869 231.89898604 108.54342266 231.89219161 98.83551522 C231.88892351 93.88256154 231.88888021 88.9296635 231.89754486 83.97671509 C231.90539789 79.44106287 231.90399065 74.90551055 231.89526073 70.36986081 C231.89372311 68.73059029 231.89555176 67.09131237 231.9011208 65.45205059 C231.93973067 53.27919772 231.84262005 42.94286697 223.64567566 33.26069641 C217.01612571 27.01128121 209.59817589 25.95842656 200.81611633 26 C199.51810036 25.99426168 199.51810036 25.99426168 198.19386184 25.98840743 C195.30680622 25.97812446 192.41995123 25.98206063 189.53288269 25.98603821 C187.45780758 25.98168913 185.38273408 25.97650532 183.30766296 25.97055054 C177.67953538 25.95717024 172.05147499 25.95658082 166.4233346 25.95911384 C161.72158515 25.96018423 157.01984926 25.9552984 152.31810272 25.95050842 C141.22399561 25.93941651 130.12992235 25.93897401 119.03581238 25.94502258 C107.59836773 25.95106255 96.1610461 25.93874998 84.72362244 25.91745251 C74.89666241 25.89982804 65.06974151 25.89383651 55.24276626 25.89709026 C49.37675181 25.89890194 43.5108251 25.89627827 37.64482498 25.88237572 C32.12738422 25.86978835 26.61013501 25.87175022 21.09269714 25.88478661 C19.07109894 25.88714996 17.04948721 25.88442636 15.02790451 25.87616348 C12.26144954 25.86567395 9.49563469 25.87381441 6.72920227 25.88647461 C5.93531164 25.87910032 5.14142102 25.87172604 4.3234731 25.86412829 C-4.47694728 25.94845497 -12.55376313 28.34908243 -18.35432434 35.26069641 Z " fill="#000000" transform="translate(152.3543243408203,-0.2606964111328125)"/>
<path d="M0 0 C6.07833597 3.52483404 9.84486674 8.7019132 13 14.875 C14.46707641 23.18843297 14.4401309 30.34722917 10.171875 37.8046875 C5.39807826 44.50190719 -0.36051581 48.46422751 -8.4375 50.0625 C-16.02838425 50.91953532 -23.28031635 49.02315109 -29.5546875 44.5546875 C-34.77904258 39.73393067 -37.90080986 34.20663315 -38.81640625 27.13671875 C-39.1542812 18.55905467 -36.93264786 12.8786085 -32.3125 5.8125 C-23.42598174 -2.6876479 -11.45144657 -5.00238229 0 0 Z " fill="#000000" transform="translate(268.4375,419.9375)"/>
<path d="M0 0 C1.11821136 -0.0127597 2.23642273 -0.02551941 3.38851929 -0.03866577 C5.1870787 -0.04200424 5.1870787 -0.04200424 7.02197266 -0.04541016 C8.26347076 -0.05206696 9.50496887 -0.05872375 10.78408813 -0.06558228 C13.40828979 -0.07570017 16.03251714 -0.08039956 18.65673828 -0.08007812 C21.33962919 -0.0799154 24.02183863 -0.09382786 26.70458984 -0.12109375 C30.5814291 -0.15777557 34.45747706 -0.16755266 38.33447266 -0.17041016 C40.12695938 -0.19196671 40.12695938 -0.19196671 41.95565796 -0.21395874 C48.63539563 -0.17740775 52.90923468 0.23847301 58.31103516 4.29052734 C61.52354943 7.91755959 61.83803168 11.38944436 61.65869141 16.07568359 C61.10078919 19.62995948 59.69998405 21.65011014 57.31103516 24.29052734 C51.51191279 28.34291156 45.25773473 27.72341412 38.46728516 27.68896484 C36.60360291 27.69327011 36.60360291 27.69327011 34.70227051 27.69766235 C31.40993361 27.70022116 28.11802474 27.68818866 24.82574463 27.67138672 C22.81272824 27.66553227 20.8001042 27.67136744 18.78710938 27.68164062 C14.90948363 27.70019386 11.03243524 27.69792255 7.15478516 27.68896484 C5.95776978 27.69503754 4.76075439 27.70111023 3.52746582 27.70736694 C-3.67472065 27.64663076 -8.69031911 27.28917308 -14.00146484 21.97802734 C-16.57074843 17.88620533 -17.0592487 14.93997361 -16.00146484 10.22802734 C-14.20668193 6.21113226 -12.44337563 3.15380288 -8.4078064 1.1680603 C-5.45689738 0.21562528 -3.09626681 0.02407702 0 0 Z " fill="#000000" transform="translate(254.68896484375,41.70947265625)"/>
<path d="M0 0 C3.58559961 2.21239125 5.39116876 4.15707123 7 8 C7.72320767 12.62516534 7.4121396 16.14401775 5.375 20.375 C2.20214614 23.88183848 -0.36551527 25.8463993 -5.2109375 26.12890625 C-9.48996769 25.89434147 -11.53599048 25.37515664 -14.9375 22.625 C-18.44690879 18.15847972 -19.45711378 15.84374848 -19.3125 10.28515625 C-18.81912092 6.67732172 -17.41635627 4.67070956 -15 2 C-10.08715913 -1.54181551 -5.672626 -1.54898275 0 0 Z " fill="#000000" transform="translate(215,43)"/>
</svg>
